<svg width="48" height="48" viewBox="0 0 48 48" fill="none" xmlns="http://www.w3.org/2000/svg">
<path d="M24 47C36.7025 47 47 36.7025 47 24C47 11.2975 36.7025 1 24 1C11.2975 1 1 11.2975 1 24C1 36.7025 11.2975 47 24 47Z" fill="#1877F2"/>
<path d="M32.9534 30.6484L33.9734 24.0004H27.5944V19.6864C27.5944 17.8674 28.4854 16.0944 31.3424 16.0944H34.2424V10.4344C32.5397 10.1588 30.8191 10.0084 29.0944 9.98438C23.8404 9.98437 20.4064 13.1684 20.4064 18.9334V24.0004H14.5664V30.6484H20.4064V46.7204C22.7879 47.0937 25.2129 47.0937 27.5944 46.7204V30.6484H32.9534Z" fill="white"/>
</svg>
