<svg width="48" height="48" viewBox="0 0 48 48" fill="none" xmlns="http://www.w3.org/2000/svg">
<g clip-path="url(#clip0_6561_21690)">
<path d="M24.008 0.00457159C13.9881 0.00457159 11.0565 0.0148577 10.4874 0.0617171C8.84566 0.127469 7.23537 0.53257 5.75799 1.25149C4.72493 1.75365 3.79074 2.43774 3.00014 3.27101C1.47071 4.86814 0.495767 6.91501 0.219439 9.109C0.0571457 10.2325 0.0102862 10.4611 0 16.1951C0 18.1071 0 20.6227 0 23.9966C0 34.0108 0.0114292 36.94 0.0594315 37.5081C0.127397 39.1148 0.515987 40.6917 1.20234 42.146C1.84315 43.4589 2.76077 44.6174 3.89208 45.5417C5.02339 46.466 6.34153 47.1343 7.7558 47.5005C8.89848 47.7728 10.0663 47.926 11.2405 47.9577C11.8349 47.984 17.8934 48.0023 23.9554 48.0023C30.0174 48.0023 36.0794 47.9954 36.6589 47.9657C37.8762 47.9426 39.0872 47.7839 40.2693 47.4925C41.6865 47.1291 43.0071 46.4606 44.1391 45.5338C45.271 44.607 46.1869 43.4441 46.8228 42.1266C47.4986 40.701 47.8833 39.155 47.9543 37.5789C47.9863 37.1652 48 30.5706 48 23.9851C48 17.3997 47.9851 10.8165 47.9531 10.4028C47.884 8.80919 47.4913 7.24635 46.7988 5.80942C46.2921 4.75252 45.5946 3.79821 44.7416 2.99443C43.1399 1.46943 41.092 0.497357 38.8979 0.220582C37.7767 0.0582883 37.5538 0.0102862 31.8118 0L24.008 0.00457159Z" fill="url(#paint0_radial_6561_21690)"/>
<path d="M24.008 0.00457159C13.9881 0.00457159 11.0565 0.0148577 10.4874 0.0617171C8.84566 0.127469 7.23537 0.53257 5.75799 1.25149C4.72493 1.75365 3.79074 2.43774 3.00014 3.27101C1.47071 4.86814 0.495767 6.91501 0.219439 9.109C0.0571457 10.2325 0.0102862 10.4611 0 16.1951C0 18.1071 0 20.6227 0 23.9966C0 34.0108 0.0114292 36.94 0.0594315 37.5081C0.127397 39.1148 0.515987 40.6917 1.20234 42.146C1.84315 43.4589 2.76077 44.6174 3.89208 45.5417C5.02339 46.466 6.34153 47.1343 7.7558 47.5005C8.89848 47.7728 10.0663 47.926 11.2405 47.9577C11.8349 47.984 17.8934 48.0023 23.9554 48.0023C30.0174 48.0023 36.0794 47.9954 36.6589 47.9657C37.8762 47.9426 39.0872 47.7839 40.2693 47.4925C41.6865 47.1291 43.0071 46.4606 44.1391 45.5338C45.271 44.607 46.1869 43.4441 46.8228 42.1266C47.4986 40.701 47.8833 39.155 47.9543 37.5789C47.9863 37.1652 48 30.5706 48 23.9851C48 17.3997 47.9851 10.8165 47.9531 10.4028C47.884 8.80919 47.4913 7.24635 46.7988 5.80942C46.2921 4.75252 45.5946 3.79821 44.7416 2.99443C43.1399 1.46943 41.092 0.497357 38.8979 0.220582C37.7767 0.0582883 37.5538 0.0102862 31.8118 0L24.008 0.00457159Z" fill="url(#paint1_radial_6561_21690)"/>
<path d="M24.0003 6.28223C19.1875 6.28223 18.584 6.3028 16.6937 6.38852C15.2238 6.41794 13.7696 6.69657 12.3929 7.21256C11.2153 7.66762 10.1459 8.36376 9.25312 9.25634C8.36035 10.1489 7.66398 11.2182 7.20865 12.3957C6.6917 13.7728 6.41304 15.228 6.38461 16.6987C6.30004 18.5891 6.27832 19.1937 6.27832 24.0134C6.27832 28.833 6.30004 29.4296 6.38575 31.32C6.41534 32.7901 6.69357 34.2446 7.20865 35.6219C7.66352 36.7988 8.35907 37.8679 9.25078 38.7606C10.1425 39.6533 11.2108 40.35 12.3872 40.8062C13.7644 41.3212 15.219 41.5995 16.6891 41.6291C18.5795 41.7148 19.1829 41.7365 23.9946 41.7365C28.8062 41.7365 29.4097 41.7148 31.3001 41.6291C32.7706 41.5993 34.2254 41.3211 35.6031 40.8062C36.78 40.3496 37.8486 39.6527 38.7409 38.7599C39.6331 37.867 40.3294 36.7979 40.7851 35.6208C41.2982 34.2425 41.5768 32.788 41.6091 31.3177C41.6937 29.4273 41.7154 28.825 41.7154 24.0111C41.7154 19.1971 41.6937 18.5925 41.6091 16.7022C41.5769 15.2322 41.2984 13.7781 40.7851 12.4002C40.33 11.2227 39.6339 10.1532 38.7413 9.26046C37.8488 8.36769 36.7795 7.67131 35.602 7.21599C34.224 6.70039 32.7688 6.42177 31.2978 6.39195C29.4074 6.30623 28.8051 6.28566 23.9912 6.28566L24.0003 6.28223ZM22.4105 9.48238H24.0003C28.732 9.48238 29.2931 9.49838 31.1606 9.5841C32.2843 9.59756 33.3973 9.80401 34.4511 10.1944C35.2151 10.4896 35.909 10.9413 36.4881 11.5206C37.0672 12.0998 37.5186 12.7938 37.8135 13.558C38.2039 14.6118 38.4104 15.7248 38.4239 16.8484C38.5084 18.7171 38.5279 19.2783 38.5279 24.0088C38.5279 28.7393 38.5084 29.3005 38.4239 31.1691C38.4104 32.2928 38.2039 33.4058 37.8135 34.4596C37.5184 35.2234 37.0668 35.9172 36.4877 36.4962C35.9087 37.0753 35.215 37.5269 34.4511 37.822C33.3975 38.213 32.2844 38.4195 31.1606 38.4323C29.2931 38.5169 28.732 38.5352 24.0003 38.5352C19.2687 38.5352 18.7075 38.5169 16.84 38.4323C15.7162 38.4185 14.6032 38.2117 13.5495 37.8209C12.7854 37.526 12.0914 37.0745 11.5121 36.4954C10.9328 35.9163 10.4811 35.2225 10.1859 34.4584C9.7944 33.405 9.58792 32.2918 9.57562 31.168C9.4899 29.2993 9.47276 28.7382 9.47276 24.0042C9.47276 19.2703 9.4899 18.7125 9.57562 16.8439C9.58863 15.7202 9.79509 14.6071 10.1859 13.5534C10.4805 12.7888 10.932 12.0943 11.5113 11.5148C12.0907 10.9353 12.785 10.4835 13.5495 10.1887C14.6029 9.79662 15.7161 9.58975 16.84 9.57724C18.4743 9.50295 19.1086 9.48124 22.4105 9.47781V9.48238ZM33.459 12.4254C33.0383 12.4254 32.627 12.5501 32.2772 12.7839C31.9274 13.0177 31.6548 13.3499 31.4939 13.7386C31.3329 14.1274 31.2909 14.5551 31.373 14.9677C31.4552 15.3803 31.6579 15.7593 31.9555 16.0567C32.253 16.3541 32.6321 16.5566 33.0448 16.6386C33.4575 16.7205 33.8852 16.6782 34.2738 16.5171C34.6624 16.3559 34.9945 16.0831 35.2281 15.7332C35.4617 15.3833 35.5862 14.9719 35.586 14.5512C35.586 14.2719 35.531 13.9954 35.4241 13.7374C35.3172 13.4794 35.1605 13.245 34.963 13.0476C34.7654 12.8502 34.531 12.6936 34.2729 12.5869C34.0149 12.4801 33.7383 12.4252 33.459 12.4254ZM24.0003 14.9044C22.1997 14.903 20.4392 15.4357 18.9414 16.4351C17.4437 17.4345 16.276 18.8556 15.586 20.5188C14.8961 22.1819 14.7149 24.0123 15.0654 25.7785C15.416 27.5446 16.2824 29.1671 17.5552 30.4407C18.828 31.7143 20.45 32.5818 22.2159 32.9334C23.9818 33.285 25.8123 33.105 27.4759 32.4161C29.1395 31.7272 30.5614 30.5604 31.5617 29.0633C32.562 27.5661 33.0958 25.8059 33.0956 24.0054C33.0953 21.5927 32.1371 19.2789 30.4317 17.5723C28.7262 15.8658 26.413 14.9062 24.0003 14.9044ZM24.0003 18.1045C25.1693 18.1047 26.3119 18.4517 27.2836 19.1014C28.2553 19.7512 29.0125 20.6746 29.4593 21.7548C29.9061 22.835 30.0225 24.0234 29.7937 25.1698C29.565 26.3161 29.0013 27.3688 28.1741 28.1948C27.3469 29.0207 26.2933 29.5827 25.1466 29.8097C23.9999 30.0367 22.8116 29.9185 21.7321 29.47C20.6526 29.0215 19.7304 28.2629 19.0822 27.2902C18.4339 26.3175 18.0887 25.1743 18.0903 24.0054C18.0905 23.2294 18.2435 22.4612 18.5406 21.7444C18.8377 21.0276 19.273 20.3764 19.8219 19.8279C20.3707 19.2794 21.0221 18.8444 21.7391 18.5477C22.456 18.251 23.2244 18.0985 24.0003 18.0988V18.1045Z" fill="white"/>
</g>
<defs>
<radialGradient id="paint0_radial_6561_21690" cx="0" cy="0" r="1" gradientUnits="userSpaceOnUse" gradientTransform="translate(12.8578 51.7893) rotate(-90) scale(47.5852 44.2497)">
<stop stop-color="#FFDD55"/>
<stop offset="0.1" stop-color="#FFDD55"/>
<stop offset="0.5" stop-color="#FF543E"/>
<stop offset="1" stop-color="#C837AB"/>
</radialGradient>
<radialGradient id="paint1_radial_6561_21690" cx="0" cy="0" r="1" gradientUnits="userSpaceOnUse" gradientTransform="translate(-8.11787 3.25339) rotate(78.6774) scale(21.2669 87.6608)">
<stop stop-color="#3771C8"/>
<stop offset="0.128" stop-color="#3771C8"/>
<stop offset="1" stop-color="#6600FF" stop-opacity="0"/>
</radialGradient>
<clipPath id="clip0_6561_21690">
<rect width="48" height="48" fill="white"/>
</clipPath>
</defs>
</svg>
