<svg width="48" height="48" viewBox="0 0 48 48" fill="none" xmlns="http://www.w3.org/2000/svg">
  <path d="M44.4488 0H3.54134C1.58822 0 0.000976562 1.54948 0.000976562 3.46093V44.5364C0.000976562 46.4479 1.58822 48 3.54134 48H44.4488C46.4059 48 47.9996 46.4479 47.9996 44.5364V3.46093C47.9996 1.54948 46.4059 0 44.4488 0Z" fill="#007BB5"/>
  <path d="M7.11294 17.9951H14.2392V40.9014H7.11294V17.9951ZM10.6781 6.6084C12.9554 6.6084 14.8043 8.45801 14.8043 10.7367C14.8043 13.016 12.9554 14.8655 10.6781 14.8655C8.3916 14.8655 6.54785 13.016 6.54785 10.7367C6.54785 8.45801 8.39159 6.6084 10.6781 6.6084Z" fill="white"/>
  <path d="M18.7051 17.9952H25.5293V21.1266H25.6269C26.5761 19.3258 28.8991 17.4268 32.3627 17.4268C39.5709 17.4268 40.9031 22.1697 40.9031 28.3389V40.9014H33.7845V29.7621C33.7845 27.1058 33.7389 23.6885 30.0853 23.6885C26.3809 23.6885 25.8157 26.5837 25.8157 29.572V40.9014H18.7051V17.9952Z" fill="white"/>
</svg>
