<svg width="48" height="48" viewBox="0 0 48 48" fill="none" xmlns="http://www.w3.org/2000/svg">
<path d="M29.024 26.5581L25.6752 2H25.4251C13.2479 2.03555 3.38516 11.8983 3.34961 24.0755V24.3256L29.024 26.5581Z" fill="#ED6C47"/>
<path d="M25.9239 2H25.6738V24.3256L36.8366 28.7907L47.9994 24.3256V24.0755C47.9639 11.8983 38.1011 2.03555 25.9239 2Z" fill="#FF8F6B"/>
<path d="M48.0008 24.3262V24.5718C47.9658 36.7517 38.1007 46.6168 25.9208 46.6518H25.4296C13.2497 46.6168 3.38456 36.7517 3.34961 24.5718V24.3262H48.0008Z" fill="#D35230"/>
<path opacity="0.1" d="M26.7915 12.9725V36.7939C26.7859 37.6216 26.2843 38.3652 25.5189 38.6804C25.2752 38.7835 25.0133 38.8366 24.7487 38.8367H8.61847C8.30591 38.4795 8.00453 38.0999 7.72545 37.7204C4.8815 33.9266 3.34593 29.3121 3.34963 24.5706V24.0795C3.34311 19.8028 4.59299 15.6184 6.94405 12.046C7.18964 11.6664 7.44637 11.2869 7.72545 10.9297H24.7487C25.8734 10.9382 26.783 11.8478 26.7915 12.9725Z" fill="#131516"/>
<path opacity="0.2" d="M25.6752 14.0897V37.9111C25.6752 38.1757 25.622 38.4376 25.519 38.6813C25.2038 39.4467 24.4602 39.9483 23.6324 39.9538H9.6343C9.28111 39.5953 8.94223 39.2229 8.61847 38.8376C8.30591 38.4804 8.00453 38.1008 7.72545 37.7213C4.8815 33.9275 3.34593 29.3129 3.34963 24.5715V24.0804C3.34311 19.8037 4.59299 15.6193 6.94405 12.0469H23.6324C24.7571 12.0554 25.6667 12.965 25.6752 14.0897Z" fill="#131516"/>
<path opacity="0.2" d="M25.6752 14.0897V35.6785C25.6667 36.8031 24.7571 37.7128 23.6324 37.7213H7.72545C4.8815 33.9275 3.34593 29.3129 3.34963 24.5715V24.0804C3.34311 19.8037 4.59299 15.6193 6.94405 12.0469H23.6324C24.7571 12.0554 25.6667 12.965 25.6752 14.0897Z" fill="#131516"/>
<path opacity="0.2" d="M24.5589 14.0897V35.6785C24.5504 36.8031 23.6408 37.7128 22.5162 37.7213H7.72545C4.8815 33.9275 3.34593 29.3129 3.34963 24.5715V24.0804C3.34311 19.8037 4.59299 15.6193 6.94405 12.0469H22.5161C23.6408 12.0554 24.5504 12.965 24.5589 14.0897Z" fill="#131516"/>
<path d="M2.04613 12.0469H22.512C23.642 12.0469 24.5581 12.963 24.5581 14.093V34.5589C24.5581 35.6889 23.642 36.605 22.512 36.605H2.04613C0.916099 36.605 0 35.6889 0 34.5589V14.093C0 12.963 0.916099 12.0469 2.04613 12.0469Z" fill="url(#paint0_linear_6562_21857)"/>
<path d="M12.5016 17.505C13.8338 17.4151 15.1546 17.802 16.2277 18.5967C17.1227 19.3957 17.601 20.5617 17.5248 21.7591C17.5395 22.5915 17.3176 23.4109 16.8852 24.1223C16.4474 24.8214 15.8166 25.3789 15.069 25.7275C14.2143 26.125 13.2799 26.3213 12.3375 26.3012H9.74883V31.1124H7.09766V17.505H12.5016ZM9.7466 24.2227H12.0283C12.7516 24.2759 13.4693 24.0618 14.0454 23.6211C14.5219 23.164 14.7716 22.5195 14.7275 21.8607C14.7275 20.3612 13.856 19.6114 12.1131 19.6114H9.74663V24.2227H9.7466Z" fill="white"/>
<defs>
<linearGradient id="paint0_linear_6562_21857" x1="4.26625" y1="10.4481" x2="20.2919" y2="38.2038" gradientUnits="userSpaceOnUse">
<stop stop-color="#CA4C28"/>
<stop offset="0.5" stop-color="#C5401E"/>
<stop offset="1" stop-color="#B62F14"/>
</linearGradient>
</defs>
</svg>
