<svg width="48" height="48" viewBox="0 0 48 48" fill="none" xmlns="http://www.w3.org/2000/svg">
  <path d="M48 9.11382C46.234 9.89704 44.3361 10.4265 42.3439 10.6645C44.3773 9.44576 45.9387 7.51582 46.6739 5.21621C44.7713 6.34476 42.6637 7.16432 40.4205 7.60601C38.6241 5.69201 36.0648 4.49609 33.2324 4.49609C27.7936 4.49609 23.3844 8.90532 23.3844 14.3437C23.3844 15.1156 23.4715 15.8671 23.6393 16.5879C15.4549 16.1772 8.19863 12.2567 3.34155 6.29864C2.49387 7.75313 2.0083 9.44473 2.0083 11.2495C2.0083 14.666 3.74688 17.6802 6.38923 19.4463C4.77496 19.3952 3.25651 18.9521 1.92873 18.2145C1.92804 18.2556 1.92789 18.2968 1.92789 18.3383C1.92789 23.1097 5.32241 27.09 9.82749 27.9946C9.00107 28.2195 8.13108 28.3399 7.23299 28.3399C6.59841 28.3399 5.9815 28.2782 5.38019 28.1633C6.63338 32.0756 10.2702 34.9229 14.5795 35.0024C11.2091 37.6436 6.96294 39.2179 2.34916 39.2179C1.55427 39.2179 0.77036 39.1713 0 39.0804C4.35814 41.8745 9.53447 43.5047 15.0957 43.5047C33.2095 43.5047 43.1146 28.499 43.1146 15.4856C43.1146 15.0586 43.105 14.6339 43.0862 14.2116C45.0101 12.8232 46.6798 11.0887 48 9.11382Z" fill="#00A3F5"/>
</svg>
