<svg width="48" height="48" viewBox="0 0 48 48" fill="none" xmlns="http://www.w3.org/2000/svg">
<path d="M41 47H7C6.46957 47 5.96086 46.7893 5.58579 46.4142C5.21071 46.0391 5 45.5304 5 45V3C5 2.46957 5.21071 1.96086 5.58579 1.58579C5.96086 1.21071 6.46957 1 7 1H31L43 13V45C43 45.5304 42.7893 46.0391 42.4142 46.4142C42.0391 46.7893 41.5304 47 41 47Z" fill="#DFE8EC"/>
<path d="M31 1V11C31 11.5304 31.2107 12.0391 31.5858 12.4142C31.9609 12.7893 32.4696 13 33 13H43L31 1Z" fill="#C0D0D8"/>
<path d="M34 35H14C13.7348 35 13.4804 35.1054 13.2929 35.2929C13.1054 35.4804 13 35.7348 13 36C13 36.2652 13.1054 36.5196 13.2929 36.7071C13.4804 36.8946 13.7348 37 14 37H34C34.2652 37 34.5196 36.8946 34.7071 36.7071C34.8946 36.5196 35 36.2652 35 36C35 35.7348 34.8946 35.4804 34.7071 35.2929C34.5196 35.1054 34.2652 35 34 35Z" fill="#C0D0D8"/>
<path d="M34 25H14C13.7348 25 13.4804 25.1054 13.2929 25.2929C13.1054 25.4804 13 25.7348 13 26C13 26.2652 13.1054 26.5196 13.2929 26.7071C13.4804 26.8946 13.7348 27 14 27H34C34.2652 27 34.5196 26.8946 34.7071 26.7071C34.8946 26.5196 35 26.2652 35 26C35 25.7348 34.8946 25.4804 34.7071 25.2929C34.5196 25.1054 34.2652 25 34 25Z" fill="#C0D0D8"/>
<path d="M22 15H14C13.7348 15 13.4804 15.1054 13.2929 15.2929C13.1054 15.4804 13 15.7348 13 16C13 16.2652 13.1054 16.5196 13.2929 16.7071C13.4804 16.8946 13.7348 17 14 17H22C22.2652 17 22.5196 16.8946 22.7071 16.7071C22.8946 16.5196 23 16.2652 23 16C23 15.7348 22.8946 15.4804 22.7071 15.2929C22.5196 15.1054 22.2652 15 22 15Z" fill="#C0D0D8"/>
</svg>
