<svg width="48" height="48" viewBox="0 0 48 48" fill="none" xmlns="http://www.w3.org/2000/svg">
<path d="M41 47H7C5.895 47 5 46.105 5 45V3C5 1.895 5.895 1 7 1H31L43 13V45C43 46.105 42.105 47 41 47Z" fill="#850AFF"/>
<path d="M31 1V11C31 12.105 31.895 13 33 13H43L31 1Z" fill="#6600CC"/>
<path d="M21.5 23C22.8807 23 24 21.8807 24 20.5C24 19.1193 22.8807 18 21.5 18C20.1193 18 19 19.1193 19 20.5C19 21.8807 20.1193 23 21.5 23Z" fill="white"/>
<path d="M32.7684 30.3596L27.7684 24.3596C27.3884 23.9036 26.6124 23.9036 26.2324 24.3596L22.0414 29.3886L19.8004 26.3996C19.4234 25.8956 18.5774 25.8956 18.2004 26.3996L15.2004 30.3996C14.9724 30.7026 14.9364 31.1076 15.1054 31.4466C15.2744 31.7856 15.6214 31.9996 16.0004 31.9996H32.0004C32.3884 31.9996 32.7414 31.7746 32.9064 31.4236C33.0704 31.0726 33.0174 30.6576 32.7684 30.3596Z" fill="white"/>
</svg>
